<svg xmlns="http://www.w3.org/2000/svg" viewBox="0 0 167.98 191.31"><title>Asset 1</title><g id="Layer_2" data-name="Layer 2"><g id="Layer_1-2" data-name="Layer 1"><path d="M167.6,185,88.11,2.69c0-.07-.07-.13-.1-.19s-.12-.25-.2-.36-.13-.2-.21-.3-.16-.21-.24-.31l-.26-.27L86.81,1,86.53.79,86.18.58,85.87.42,85.5.26,85.14.15,84.91.08l-.15,0-.39,0L84,0l-.37,0-.4,0-.14,0-.22.07-.38.11-.35.15-.33.17-.33.21-.3.22-.29.26-.26.27c-.09.1-.16.2-.24.3s-.14.2-.21.3-.14.24-.2.36-.07.12-.1.19L.37,185a4.5,4.5,0,0,0,4.76,6.25L84,180l78.85,11.23A4.5,4.5,0,0,0,167.6,185Zm-17-16.42L88.49,110.35V26.07ZM79.49,110.35,17.35,168.6,79.49,26.07Zm0,12.34v48.91L18,180.35Zm9,0L150,180.35l-61.51-8.76Z"/></g></g></svg>